Coordinates
version=1
nRows=27
nColumns=38
inDegrees=no

Units are S.I. units (second, meters, Newtons, ...)
If the header above contains a line with 'inDegrees', this indicates whether rotational values are in degrees (yes) or radians (no).

endheader
time	pelvis_tilt	pelvis_list	pelvis_rotation	pelvis_tx	pelvis_ty	pelvis_tz	hip_flexion_r	hip_adduction_r	hip_rotation_r	knee_angle_r	ankle_angle_r	subtalar_angle_r	mtp_angle_r	hip_flexion_l	hip_adduction_l	hip_rotation_l	knee_angle_l	ankle_angle_l	subtalar_angle_l	mtp_angle_l	lumbar_extension	lumbar_bending	lumbar_rotation	arm_flex_r	arm_add_r	arm_rot_r	elbow_flex_r	pro_sup_r	wrist_flex_r	wrist_dev_r	arm_flex_l	arm_add_l	arm_rot_l	elbow_flex_l	pro_sup_l	wrist_flex_l	wrist_dev_l
1.85	-2.02626	1.4227	-2.76311	0.713643	1.461	0.929328	-0.0609681	-0.312315	-0.142763	0.97671	-0.053334	0	0	0.42841	0.0460505	-0.336223	0.61077	0.0515615	0	0	-0.0533935	-0.150598	0.0632926	-0.0170537	-0.175986	0.141325	0.547582	1.16644	0	0	-0.353108	-0.216937	0.287892	0.661779	0.742199	0	0
1.86	-2.01234	1.41969	-2.77238	0.711523	1.47199	0.929747	-0.0263027	-0.318758	-0.127758	1.03422	-0.107801	0	0	0.418986	0.0543421	-0.335049	0.615413	0.0610939	0	0	-0.0515572	-0.155463	0.0581762	-0.0300928	-0.174764	0.13225	0.555281	1.16331	0	0	-0.35192	-0.222954	0.295349	0.665543	0.734432	0	0
1.87	-2.00328	1.41568	-2.77772	0.709536	1.48269	0.930352	0.00771328	-0.325275	-0.11234	1.08811	-0.163567	0	0	0.406808	0.0642105	-0.333291	0.615839	0.0701132	0	0	-0.0511863	-0.161013	0.053692	-0.0418711	-0.173721	0.125262	0.562371	1.1597	0	0	-0.349373	-0.228872	0.301631	0.669179	0.726446	0	0
1.88	-2.00265	1.41067	-2.77531	0.70768	1.49318	0.931258	0.0391003	-0.331414	-0.0972065	1.13659	-0.218392	0	0	0.391562	0.0756083	-0.329831	0.612795	0.0780577	0	0	-0.0527375	-0.167018	0.049188	-0.0520312	-0.172065	0.119794	0.568018	1.15243	0	0	-0.345436	-0.23434	0.30682	0.671465	0.717362	0	0
1.89	-2.00949	1.40512	-2.76628	0.705962	1.5035	0.932492	0.0680175	-0.336738	-0.0824302	1.18036	-0.26364	0	0	0.373787	0.0877474	-0.324695	0.607476	0.0861338	0	0	-0.0558468	-0.173033	0.0446522	-0.0601327	-0.170093	0.115735	0.570262	1.14475	0	0	-0.340241	-0.238682	0.309233	0.671455	0.710952	0	0
1.9	-2.02257	1.39924	-2.75242	0.704461	1.51365	0.934018	0.0959925	-0.342397	-0.068772	1.22249	-0.286092	0	0	0.353515	0.0998293	-0.319242	0.599852	0.0943086	0	0	-0.0600293	-0.178906	0.0402552	-0.0666888	-0.17179	0.13175	0.573241	1.0968	0	0	-0.334545	-0.240989	0.304632	0.668551	0.720847	0	0
1.91	-2.0388	1.39381	-2.73465	0.703091	1.5238	0.935843	0.121853	-0.347674	-0.0589515	1.26108	-0.281502	0	0	0.331147	0.111405	-0.312573	0.589753	0.101521	0	0	-0.0647865	-0.184065	0.0353302	-0.0706293	-0.16702	0.116984	0.564922	1.13784	0	0	-0.328525	-0.243723	0.299907	0.666198	0.731886	0	0
1.92	-2.0601	1.39077	-2.70991	0.701681	1.53398	0.937896	0.144806	-0.349077	-0.0525915	1.29349	-0.26131	0	0	0.307987	0.11999	-0.304388	0.579219	0.10867	0	0	-0.0693091	-0.186245	0.0277867	-0.0749881	-0.165388	0.117969	0.559674	1.14134	0	0	-0.323372	-0.246722	0.296226	0.665826	0.737662	0	0
1.93	-2.08677	1.38912	-2.68061	0.700388	1.54398	0.940118	0.166732	-0.347879	-0.0472674	1.32018	-0.236053	0	0	0.283551	0.125771	-0.297325	0.567192	0.115527	0	0	-0.074375	-0.186301	0.0209152	-0.0792897	-0.16396	0.117989	0.555059	1.14458	0	0	-0.317604	-0.249341	0.292463	0.666043	0.743176	0	0
1.94	-2.11457	1.38886	-2.65005	0.699137	1.55379	0.942382	0.188413	-0.346293	-0.0457336	1.34127	-0.213066	0	0	0.259172	0.129364	-0.290809	0.55411	0.121772	0	0	-0.0794173	-0.184495	0.0138091	-0.0838971	-0.162971	0.11773	0.551929	1.14682	0	0	-0.310792	-0.251027	0.288309	0.665198	0.747686	0	0
1.95	-2.13784	1.39079	-2.62181	0.697814	1.56347	0.944555	0.210165	-0.340678	-0.0451071	1.35658	-0.194363	0	0	0.237053	0.130871	-0.283137	0.541198	0.127412	0	0	-0.082828	-0.180748	0.00473968	-0.0892077	-0.161869	0.117188	0.549992	1.14694	0	0	-0.303928	-0.25301	0.28525	0.665199	0.750645	0	0
1.96	-2.15696	1.39396	-2.59694	0.696435	1.57292	0.946598	0.232752	-0.333941	-0.0455661	1.36711	-0.179575	0	0	0.217047	0.131176	-0.275425	0.528697	0.132495	0	0	-0.0851858	-0.176018	-0.0049637	-0.0948239	-0.160814	0.116192	0.549305	1.14527	0	0	-0.296882	-0.255321	0.283592	0.666447	0.752096	0	0
1.97	-2.17425	1.39746	-2.57257	0.69491	1.58214	0.948565	0.255088	-0.328051	-0.0484184	1.37315	-0.167099	0	0	0.197752	0.13159	-0.266299	0.515582	0.136501	0	0	-0.0876621	-0.170978	-0.0158784	-0.1006	-0.16027	0.11607	0.550187	1.14065	0	0	-0.289441	-0.257991	0.282976	0.669068	0.753337	0	0
1.98	-2.19344	1.40057	-2.54706	0.693459	1.59122	0.950474	0.276732	-0.322468	-0.0515053	1.37488	-0.156238	0	0	0.177738	0.131579	-0.258999	0.50146	0.139951	0	0	-0.0907215	-0.166126	-0.0260682	-0.106278	-0.159783	0.114445	0.551615	1.13654	0	0	-0.281047	-0.260836	0.281565	0.672611	0.757276	0	0
1.99	-2.2188	1.40282	-2.51484	0.692014	1.60028	0.952398	0.295404	-0.317478	-0.0562682	1.37189	-0.146298	0	0	0.155573	0.131372	-0.252419	0.485869	0.14319	0	0	-0.0952308	-0.161356	-0.036947	-0.111776	-0.159461	0.113922	0.553357	1.12851	0	0	-0.272168	-0.263687	0.278696	0.676369	0.764313	0	0
2	-2.24687	1.40401	-2.47863	0.690509	1.60939	0.954313	0.311075	-0.314123	-0.0636737	1.36453	-0.136625	0	0	0.131331	0.131737	-0.245387	0.468164	0.145713	0	0	-0.101021	-0.157037	-0.0478452	-0.117021	-0.15341	0.0845012	0.550376	1.17515	0	0	-0.262495	-0.269375	0.285222	0.683256	0.751122	0	0
2.01	-2.27566	1.40517	-2.44068	0.688892	1.61842	0.95607	0.325316	-0.311998	-0.0737051	1.35373	-0.126563	0	0	0.106945	0.131733	-0.238076	0.450079	0.148241	0	0	-0.106878	-0.152249	-0.0603891	-0.12256	-0.15164	0.0760292	0.551578	1.17833	0	0	-0.252847	-0.273267	0.285906	0.688241	0.751792	0	0
2.02	-2.30243	1.40624	-2.40425	0.687237	1.62733	0.957606	0.338849	-0.311192	-0.0856099	1.34018	-0.114896	0	0	0.0829466	0.131771	-0.22994	0.431629	0.150638	0	0	-0.112596	-0.147454	-0.0731821	-0.127826	-0.149529	0.0664538	0.552602	1.17993	0	0	-0.242297	-0.277216	0.28735	0.692542	0.753439	0	0
2.03	-2.32822	1.40702	-2.3682	0.685571	1.63613	0.958929	0.351007	-0.311495	-0.0993216	1.32384	-0.101115	0	0	0.0593034	0.131771	-0.220764	0.413452	0.153147	0	0	-0.118551	-0.142806	-0.0865648	-0.132371	-0.147701	0.0587618	0.553038	1.17962	0	0	-0.231168	-0.281315	0.289015	0.696878	0.755666	0	0
2.04	-2.35934	1.40687	-2.32609	0.68389	1.64494	0.960176	0.359649	-0.312355	-0.115137	1.30399	-0.0860323	0	0	0.0343613	0.131385	-0.209925	0.39514	0.155708	0	0	-0.125888	-0.137939	-0.100608	-0.136329	-0.145919	0.0518088	0.552827	1.17728	0	0	-0.219702	-0.285486	0.290897	0.701092	0.759108	0	0
2.05	-2.38637	1.40683	-2.28969	0.68234	1.65366	0.961141	0.368803	-0.313289	-0.130034	1.28193	-0.0704873	0	0	0.0114615	0.130576	-0.200337	0.379177	0.158946	0	0	-0.132387	-0.133175	-0.112696	-0.140104	-0.144563	0.0465497	0.55236	1.1735	0	0	-0.207316	-0.289056	0.292964	0.703554	0.763073	0	0
2.06	-2.40871	1.40689	-2.25934	0.680905	1.66231	0.961847	0.37842	-0.314716	-0.144409	1.25767	-0.055242	0	0	-0.00981022	0.129776	-0.191673	0.364385	0.162557	0	0	-0.138006	-0.128876	-0.123199	-0.143404	-0.143378	0.0425457	0.551405	1.16828	0	0	-0.193957	-0.292198	0.294765	0.704477	0.768918	0	0
2.07	-2.42548	1.40749	-2.2361	0.679662	1.67092	0.962283	0.388719	-0.315811	-0.157819	1.23105	-0.0407388	0	0	-0.0284778	0.128558	-0.184903	0.352172	0.167081	0	0	-0.142016	-0.125091	-0.13217	-0.146025	-0.142668	0.0409176	0.549677	1.16303	0	0	-0.180715	-0.29494	0.295808	0.705059	0.773901	0	0
2.08	-2.44479	1.40642	-2.21087	0.6785	1.67955	0.962741	0.395478	-0.317608	-0.172242	1.20111	-0.0266622	0	0	-0.0501547	0.12849	-0.17515	0.337069	0.170231	0	0	-0.147933	-0.121898	-0.139214	-0.147313	-0.137801	0.0188914	0.542494	1.19606	0	0	-0.164936	-0.30023	0.308141	0.705473	0.772386	0	0
2.09	-2.46056	1.40572	-2.1903	0.677469	1.68813	0.962924	0.40245	-0.318867	-0.185871	1.16923	-0.013886	0	0	-0.0697189	0.128008	-0.167294	0.324621	0.174646	0	0	-0.153014	-0.119025	-0.145894	-0.148761	-0.136749	0.0173857	0.538241	1.19334	0	0	-0.149987	-0.303766	0.31449	0.706172	0.774876	0	0
2.1	-2.47466	1.40499	-2.17217	0.676566	1.69675	0.96294	0.408502	-0.31981	-0.199635	1.13533	-0.00169979	0	0	-0.0888641	0.127516	-0.159694	0.312598	0.179319	0	0	-0.157631	-0.116369	-0.151634	-0.150028	-0.135902	0.0172093	0.533597	1.19039	0	0	-0.134737	-0.306531	0.320503	0.705958	0.777446	0	0
2.11	-2.48515	1.40447	-2.15815	0.675735	1.70539	0.962761	0.414239	-0.320908	-0.213704	1.09991	0.00966756	0	0	-0.106904	0.127163	-0.152707	0.301504	0.184146	0	0	-0.161446	-0.114094	-0.156709	-0.151018	-0.135127	0.0176812	0.528345	1.18742	0	0	-0.119432	-0.308745	0.326315	0.704219	0.780997	0	0
